# xmcd
#
# Track frame offsets:
#	150
#	9737
#	22930
#	36425
#	45882
#	60047
#	72682
#	84050
#	97522
#	108807
#	120087
#
# Disc length: 1784 seconds
#
# Revision: 0
# Processed by: cddbd v1.5.2PL0 Copyright (c) Steve Scherf et al.
# Submitted via: audiograbber 1.83.01
#
DISCID=6906f60b
DTITLE=Burl Ives - A Well Respected Man
DYEAR=1900
DGENRE=Country
TTITLE0=Galisteo
TTITLE1=Time
TTITLE2=Snowbird
TTITLE3=Real Rose
TTITLE4=Real Roses
TTITLE5=Roll Up Some Inspiration
TTITLE6=Another Day Another Year
TTITLE7=Raindrops Keep Falling On My Head
TTITLE8=Tied Down Here at Home
TTITLE9=Funny Way of Laughing
TTITLE10=Comin' After Jimmy
EXTD=
EXTT0=
EXTT1=
EXTT2=
EXTT3=
EXTT4=
EXTT5=
EXTT6=
EXTT7=
EXTT8=
EXTT9=
EXTT10=
PLAYORDER=
